<?xml version="1.0" encoding="utf-8"?>
<!-- Generator: Adobe Illustrator 16.2.0, SVG Export Plug-In . SVG Version: 6.00 Build 0)  -->
<!DOCTYPE svg PUBLIC "-//W3C//DTD SVG 1.1//EN" "http://www.w3.org/Graphics/SVG/1.1/DTD/svg11.dtd">
<svg version="1.1" id="Layer_1" xmlns="http://www.w3.org/2000/svg" xmlns:xlink="http://www.w3.org/1999/xlink" x="0px" y="0px"
	 width="151px" height="54px" viewBox="0 0 151 54" enable-background="new 0 0 151 54" xml:space="preserve">
<g>
	<g>
		<path fill="#8C3739" d="M19.816,49.48c0,2.531-1.266,3.795-3.795,3.795H5.779c-2.53,0-3.795-1.264-3.795-3.795v-7.422h4.4v7.355
			h9.031V42.9L3.73,33.328c-1.119-0.895-1.678-2.059-1.678-3.49v-5.441c0-2.527,1.264-3.794,3.793-3.794h10.109
			c2.529,0,3.795,1.267,3.795,3.794v6.515h-4.334v-6.447H6.385v5.708l11.787,9.57c1.096,0.871,1.645,2.059,1.645,3.561V49.48z"/>
		<path fill="#8C3739" d="M45.674,49.48c0,2.531-1.265,3.795-3.795,3.795H30.663c-2.507,0-3.761-1.264-3.761-3.795V24.397
			c0-2.527,1.254-3.794,3.761-3.794h11.216c2.53,0,3.795,1.267,3.795,3.794V49.48z M41.207,49.35V24.532h-9.839V49.35H41.207z"/>
	</g>
	<g>
		<path fill="#4B505A" d="M60.797,53.277h-4.398V0.723h4.398V53.277z"/>
		<path fill="#4B505A" d="M87.16,49.48c0,2.533-1.266,3.797-3.795,3.797H72.148c-2.508,0-3.762-1.264-3.762-3.797V24.397
			c0-2.527,1.254-3.794,3.762-3.794h11.217c2.529,0,3.795,1.267,3.795,3.794V49.48z M82.691,49.35V24.532h-9.838V49.35H82.691z"/>
		<path fill="#4B505A" d="M112.58,49.48c0,2.533-1.256,3.797-3.76,3.797H98.209c-2.508,0-3.763-1.264-3.763-3.797V24.397
			c0-2.527,1.255-3.794,3.763-3.794h10.611c2.504,0,3.76,1.267,3.76,3.794v6.515h-4.398v-6.38h-9.27V49.35h9.27v-7.289h4.398V49.48z
			"/>
		<path fill="#4B505A" d="M138.304,53.074h-4.399v-0.906c-1.77,0.246-3.537,0.482-5.306,0.705c-2.194,0.27-3.952,0.404-5.273,0.404
			c-2.438,0-3.659-1.211-3.659-3.627V37.729c0-2.508,1.266-3.76,3.797-3.76h10.51v-9.841h-9.605v5.574h-4.33v-5.506
			c0-2.528,1.252-3.793,3.76-3.793h10.745c2.509,0,3.762,1.265,3.762,3.793V53.074z M133.973,49.012V37.459h-9.975v11.754
			L133.973,49.012z"/>
		<path fill="#4B505A" d="M150.293,53.277h-4.398V0.723h4.398V53.277z"/>
	</g>
</g>
</svg>
